<?xml version="1.0" encoding="UTF-8" standalone="no"?>
<!-- Created with Inkscape (http://www.inkscape.org/) -->

<svg
   xmlns:dc="http://purl.org/dc/elements/1.1/"
   xmlns:cc="http://creativecommons.org/ns#"
   xmlns:rdf="http://www.w3.org/1999/02/22-rdf-syntax-ns#"
   xmlns:svg="http://www.w3.org/2000/svg"
   xmlns="http://www.w3.org/2000/svg"
   xmlns:sodipodi="http://sodipodi.sourceforge.net/DTD/sodipodi-0.dtd"
   xmlns:inkscape="http://www.inkscape.org/namespaces/inkscape"
   width="300mm"
   height="300mm"
   viewBox="0 0 300 300"
   version="1.1"
   id="svg8"
   inkscape:version="0.92.1 r15371"
   sodipodi:docname="badlit RA.svg">
  <defs
     id="defs2" />
  <sodipodi:namedview
     id="base"
     pagecolor="#ffffff"
     bordercolor="#666666"
     borderopacity="1.0"
     inkscape:pageopacity="0.0"
     inkscape:pageshadow="2"
     inkscape:zoom="0.7"
     inkscape:cx="422.74342"
     inkscape:cy="571.96675"
     inkscape:document-units="mm"
     inkscape:current-layer="layer1"
     showgrid="true"
     showguides="true"
     inkscape:window-width="1920"
     inkscape:window-height="1027"
     inkscape:window-x="1912"
     inkscape:window-y="-8"
     inkscape:window-maximized="1">
    <inkscape:grid
       type="xygrid"
       id="grid22" />
    <inkscape:grid
       type="xygrid"
       id="grid3694" />
  </sodipodi:namedview>
  <metadata
     id="metadata5">
    <rdf:RDF>
      <cc:Work
         rdf:about="">
        <dc:format>image/svg+xml</dc:format>
        <dc:type
           rdf:resource="http://purl.org/dc/dcmitype/StillImage" />
        <dc:title></dc:title>
      </cc:Work>
    </rdf:RDF>
  </metadata>
  <g
     inkscape:label="Layer 1"
     inkscape:groupmode="layer"
     id="layer1"
     transform="translate(0,3)">
    <path
       style="fill:#000000;stroke:#000000;stroke-width:0.26458332px;stroke-linecap:butt;stroke-linejoin:miter;stroke-opacity:1"
       d="m 74.083332,69.458333 c 0,0 0,15.875 10.583334,21.166666 10.583333,5.291667 21.166664,5.291667 21.166664,5.291667 0,0 -10.583331,37.041664 -10.583331,52.916664 0,15.875 0,42.33333 26.458331,52.91667 26.45833,10.58333 47.625,21.16666 63.5,10.58333 15.875,-10.58333 42.33333,-26.45833 42.33333,-31.75 0,-5.29166 -15.875,-10.58333 -15.875,-10.58333 0,0 -10.58333,15.875 -26.45833,21.16666 -15.875,5.29167 -31.75,15.875 -52.91667,-5.29166 C 111.125,164.70833 111.125,127.66667 121.70833,111.79167 132.29166,95.916666 158.75,58.875 185.20833,64.166666 c 26.45833,5.291667 31.75,26.458333 31.75,26.458333 l 15.875,-10.583333 c 0,0 0,-21.166666 -31.75,-26.458333 -31.75,-5.291666 -42.33333,0 -52.91667,5.291667 -10.58333,5.291666 -31.74999,15.875 -31.74999,15.875 0,0 -10.58334,5.291666 -15.875,0 C 95.249999,69.458333 84.666666,53.583333 84.666666,53.583333 Z"
       id="path4751"
       inkscape:connector-curvature="0" />
  </g>
  <g
     inkscape:groupmode="layer"
     id="layer2"
     inkscape:label="Layer 2"
     transform="translate(0,3)" />
</svg>
