<?xml version="1.0" encoding="UTF-8" standalone="no"?>
<!-- Created with Inkscape (http://www.inkscape.org/) -->

<svg
   xmlns:dc="http://purl.org/dc/elements/1.1/"
   xmlns:cc="http://creativecommons.org/ns#"
   xmlns:rdf="http://www.w3.org/1999/02/22-rdf-syntax-ns#"
   xmlns:svg="http://www.w3.org/2000/svg"
   xmlns="http://www.w3.org/2000/svg"
   xmlns:sodipodi="http://sodipodi.sourceforge.net/DTD/sodipodi-0.dtd"
   xmlns:inkscape="http://www.inkscape.org/namespaces/inkscape"
   width="300mm"
   height="300mm"
   viewBox="0 0 300 300"
   version="1.1"
   id="svg8"
   inkscape:version="0.92.1 r15371"
   sodipodi:docname="badlit WA.svg">
  <defs
     id="defs2" />
  <sodipodi:namedview
     id="base"
     pagecolor="#ffffff"
     bordercolor="#666666"
     borderopacity="1.0"
     inkscape:pageopacity="0.0"
     inkscape:pageshadow="2"
     inkscape:zoom="0.7"
     inkscape:cx="294.57835"
     inkscape:cy="571.96675"
     inkscape:document-units="mm"
     inkscape:current-layer="layer1"
     showgrid="true"
     showguides="true"
     inkscape:window-width="1920"
     inkscape:window-height="1027"
     inkscape:window-x="1912"
     inkscape:window-y="-8"
     inkscape:window-maximized="1">
    <inkscape:grid
       type="xygrid"
       id="grid22" />
    <inkscape:grid
       type="xygrid"
       id="grid3694" />
  </sodipodi:namedview>
  <metadata
     id="metadata5">
    <rdf:RDF>
      <cc:Work
         rdf:about="">
        <dc:format>image/svg+xml</dc:format>
        <dc:type
           rdf:resource="http://purl.org/dc/dcmitype/StillImage" />
        <dc:title></dc:title>
      </cc:Work>
    </rdf:RDF>
  </metadata>
  <g
     inkscape:label="Layer 1"
     inkscape:groupmode="layer"
     id="layer1"
     transform="translate(0,3)">
    <path
       style="fill:#000000;stroke:#000000;stroke-width:0.26458332px;stroke-linecap:butt;stroke-linejoin:miter;stroke-opacity:1"
       d="m 68.791666,90.625002 c 0,0 0,5.291667 5.291666,5.291667 5.291667,0 15.875,-37.041667 31.749998,0 15.875,37.041661 -5.29166,63.500001 -5.29166,63.500001 v 0 L 95.25,170 l -10e-7,5.29167 c 0,0 -5.291667,52.91666 37.041661,58.20833 C 174.625,238.79167 190.5,222.91667 206.375,185.875 222.25,148.83333 195.79167,106.5 190.5,90.625002 185.20833,74.75 171.60118,94.404769 182.18452,89.113098 192.76785,83.821431 185.20834,80.041666 179.91667,74.75 c -5.29166,-5.291667 -9.07143,-4.913688 -19.65477,5.669645 -10.58333,10.583333 3.77976,-5.669643 19.65476,52.538685 15.875,58.20834 5.29167,74.08334 5.29167,74.08334 0,0 -21.16667,21.16666 -42.33333,10.58333 -21.16667,-10.58333 -42.33333,-15.875 -31.75,-42.33333 10.58333,-26.45834 10.58333,-42.33334 10.58333,-42.33334 0,0 5.29167,-31.74999 0,-42.333328 -5.29166,-10.583333 -15.875,-21.166666 -26.458331,-21.166666 -10.583333,0 -15.875,5.291666 -21.166667,10.583333 -5.291666,5.291666 -5.291666,10.583333 -5.291666,10.583333 z"
       id="path3698"
       inkscape:connector-curvature="0"
       sodipodi:nodetypes="cssccccsssscsscsscsssc" />
  </g>
  <g
     inkscape:groupmode="layer"
     id="layer2"
     inkscape:label="Layer 2"
     transform="translate(0,3)" />
</svg>
