<?xml version="1.0" encoding="UTF-8" standalone="no"?>
<!-- Created with Inkscape (http://www.inkscape.org/) -->

<svg
   xmlns:dc="http://purl.org/dc/elements/1.1/"
   xmlns:cc="http://creativecommons.org/ns#"
   xmlns:rdf="http://www.w3.org/1999/02/22-rdf-syntax-ns#"
   xmlns:svg="http://www.w3.org/2000/svg"
   xmlns="http://www.w3.org/2000/svg"
   xmlns:sodipodi="http://sodipodi.sourceforge.net/DTD/sodipodi-0.dtd"
   xmlns:inkscape="http://www.inkscape.org/namespaces/inkscape"
   width="300mm"
   height="300mm"
   viewBox="0 0 300 300"
   version="1.1"
   id="svg8"
   sodipodi:docname="badlit HA.svg"
   inkscape:version="0.92.1 r15371">
  <defs
     id="defs2" />
  <sodipodi:namedview
     id="base"
     pagecolor="#ffffff"
     bordercolor="#666666"
     borderopacity="1.0"
     inkscape:pageopacity="0.0"
     inkscape:pageshadow="2"
     inkscape:zoom="0.7"
     inkscape:cx="320.78885"
     inkscape:cy="571.96675"
     inkscape:document-units="mm"
     inkscape:current-layer="layer1"
     showgrid="true"
     showguides="true"
     inkscape:window-width="1920"
     inkscape:window-height="1027"
     inkscape:window-x="1912"
     inkscape:window-y="-8"
     inkscape:window-maximized="1">
    <inkscape:grid
       type="xygrid"
       id="grid22" />
    <inkscape:grid
       type="xygrid"
       id="grid3694" />
  </sodipodi:namedview>
  <metadata
     id="metadata5">
    <rdf:RDF>
      <cc:Work
         rdf:about="">
        <dc:format>image/svg+xml</dc:format>
        <dc:type
           rdf:resource="http://purl.org/dc/dcmitype/StillImage" />
        <dc:title></dc:title>
      </cc:Work>
    </rdf:RDF>
  </metadata>
  <g
     inkscape:label="Layer 1"
     inkscape:groupmode="layer"
     id="layer1"
     transform="translate(0,3)">
    <path
       style="fill:#000000;stroke:#000000;stroke-width:0.26458332px;stroke-linecap:butt;stroke-linejoin:miter;stroke-opacity:1"
       d="m 79.374999,69.458336 c 0,0 -10.583333,-5.291667 -10.583333,5.291666 0,10.583333 10.583333,15.875 10.583333,15.875 0,0 10.583333,10.583338 0,21.166668 -10.583333,10.58333 -21.166666,37.04166 -15.875,63.5 5.291667,26.45833 10.583333,37.04166 15.875,42.33333 5.291667,5.29167 15.875,21.16667 37.041671,15.875 21.16666,-5.29167 42.33333,-26.45833 42.33333,-42.33333 0,-15.875 5.29166,-21.16667 -5.29167,-37.04167 -10.58333,-15.875 -15.875,-37.04166 -5.29167,-47.625 10.58334,-10.583331 15.875,-26.458331 31.75,-15.874998 15.875,10.583338 37.04167,21.166668 21.16667,58.208328 -15.875,37.04167 -21.16667,47.625 -10.58333,63.5 10.58333,15.875 31.75,26.45834 31.75,26.45834 l 5.29166,-15.875 c 0,0 -26.45833,-5.29167 -21.16666,-21.16667 5.29166,-15.875 5.29166,-37.04167 15.875,-63.5 10.58333,-26.45833 -15.875,-68.791664 -47.625,-68.791664 -31.75,0 -47.625,31.750004 -47.625,42.333334 0,10.58333 5.29166,37.04166 15.875,52.91666 10.58333,15.875 -5.29167,47.625 -15.875,47.625 -10.58333,0 -31.750001,5.29167 -42.333334,-15.875 -10.583334,-21.16666 -10.583334,-52.91666 0,-63.5 C 95.249999,122.375 105.83333,95.916669 100.54167,90.625002 95.249999,85.333335 79.374999,69.458336 79.374999,69.458336 Z"
       id="path4572"
       inkscape:connector-curvature="0" />
  </g>
  <g
     inkscape:groupmode="layer"
     id="layer2"
     inkscape:label="Layer 2"
     transform="translate(0,3)" />
</svg>
