<?xml version="1.0" encoding="UTF-8" standalone="no"?>
<!-- Created with Inkscape (http://www.inkscape.org/) -->

<svg
   xmlns:dc="http://purl.org/dc/elements/1.1/"
   xmlns:cc="http://creativecommons.org/ns#"
   xmlns:rdf="http://www.w3.org/1999/02/22-rdf-syntax-ns#"
   xmlns:svg="http://www.w3.org/2000/svg"
   xmlns="http://www.w3.org/2000/svg"
   xmlns:sodipodi="http://sodipodi.sourceforge.net/DTD/sodipodi-0.dtd"
   xmlns:inkscape="http://www.inkscape.org/namespaces/inkscape"
   width="300mm"
   height="300mm"
   viewBox="0 0 300 300"
   version="1.1"
   id="svg8"
   sodipodi:docname="badlit E.svg"
   inkscape:version="0.92.1 r15371">
  <defs
     id="defs2" />
  <sodipodi:namedview
     id="base"
     pagecolor="#ffffff"
     bordercolor="#666666"
     borderopacity="1.0"
     inkscape:pageopacity="0.0"
     inkscape:pageshadow="2"
     inkscape:zoom="0.7"
     inkscape:cx="320.78885"
     inkscape:cy="571.96675"
     inkscape:document-units="mm"
     inkscape:current-layer="layer1"
     showgrid="true"
     showguides="true"
     inkscape:window-width="1920"
     inkscape:window-height="1027"
     inkscape:window-x="1912"
     inkscape:window-y="-8"
     inkscape:window-maximized="1">
    <inkscape:grid
       type="xygrid"
       id="grid22" />
    <inkscape:grid
       type="xygrid"
       id="grid3694" />
  </sodipodi:namedview>
  <metadata
     id="metadata5">
    <rdf:RDF>
      <cc:Work
         rdf:about="">
        <dc:format>image/svg+xml</dc:format>
        <dc:type
           rdf:resource="http://purl.org/dc/dcmitype/StillImage" />
        <dc:title></dc:title>
      </cc:Work>
    </rdf:RDF>
  </metadata>
  <g
     inkscape:label="Layer 1"
     inkscape:groupmode="layer"
     id="layer1"
     transform="translate(0,3)">
    <path
       style="fill:#000000;stroke:#000000;stroke-width:0.26458332px;stroke-linecap:butt;stroke-linejoin:miter;stroke-opacity:1"
       d="M 89.958332,64.166669 79.374999,74.750002 c 0,0 5.291667,26.458338 21.166671,26.458338 15.875,0 26.45833,0 47.62499,-10.583338 21.16667,-10.583333 37.04167,-26.458333 52.91667,-10.583333 15.875,15.875 15.875,15.875 21.16667,5.291666 5.29166,-10.583333 -15.875,-26.458333 -15.875,-26.458333 0,0 -21.16667,-10.583333 -42.33334,5.291667 -21.16666,15.875 -42.33333,21.166666 -47.62499,21.166666 -5.29167,0 -21.166671,-10.583333 -21.166671,-15.874999 0,-5.291667 -5.291667,-5.291667 -5.291667,-5.291667 z"
       id="path4557"
       inkscape:connector-curvature="0" />
    <path
       style="fill:#000000;stroke:#000000;stroke-width:0.26458332px;stroke-linecap:butt;stroke-linejoin:miter;stroke-opacity:1"
       d="m 84.666666,201.75 h 10.583333 c 0,0 0,-21.16667 5.291671,-26.45833 5.29166,-5.29167 15.875,-10.58334 15.875,-10.58334 0,0 21.16666,5.29167 26.45833,21.16667 5.29166,15.875 15.875,-21.16667 15.875,-21.16667 0,0 15.875,-21.16666 31.75,-15.875 15.875,5.29167 15.875,31.75 15.875,31.75 l -5.29167,26.45834 15.875,-5.29167 c 0,0 10.58333,-21.16667 0,-42.33333 -10.58333,-21.16667 -31.75,-26.45834 -42.33333,-26.45834 -10.58334,0 -31.75,37.04167 -31.75,37.04167 0,0 -5.29167,-21.16667 -10.58334,-21.16667 C 127,148.83333 111.125,138.25 95.249999,164.70833 79.374999,191.16667 84.666666,201.75 84.666666,201.75 Z"
       id="path4559"
       inkscape:connector-curvature="0" />
  </g>
  <g
     inkscape:groupmode="layer"
     id="layer2"
     inkscape:label="Layer 2"
     transform="translate(0,3)" />
</svg>
