<?xml version="1.0" encoding="UTF-8" standalone="no"?>
<!-- Created with Inkscape (http://www.inkscape.org/) -->

<svg
   xmlns:dc="http://purl.org/dc/elements/1.1/"
   xmlns:cc="http://creativecommons.org/ns#"
   xmlns:rdf="http://www.w3.org/1999/02/22-rdf-syntax-ns#"
   xmlns:svg="http://www.w3.org/2000/svg"
   xmlns="http://www.w3.org/2000/svg"
   xmlns:sodipodi="http://sodipodi.sourceforge.net/DTD/sodipodi-0.dtd"
   xmlns:inkscape="http://www.inkscape.org/namespaces/inkscape"
   width="300mm"
   height="300mm"
   viewBox="0 0 300 300"
   version="1.1"
   id="svg8"
   inkscape:version="0.92.1 r15371"
   sodipodi:docname="badlit TA.svg">
  <defs
     id="defs2" />
  <sodipodi:namedview
     id="base"
     pagecolor="#ffffff"
     bordercolor="#666666"
     borderopacity="1.0"
     inkscape:pageopacity="0.0"
     inkscape:pageshadow="2"
     inkscape:zoom="0.7"
     inkscape:cx="422.74342"
     inkscape:cy="571.96675"
     inkscape:document-units="mm"
     inkscape:current-layer="layer1"
     showgrid="true"
     showguides="true"
     inkscape:window-width="1920"
     inkscape:window-height="1027"
     inkscape:window-x="1912"
     inkscape:window-y="-8"
     inkscape:window-maximized="1">
    <inkscape:grid
       type="xygrid"
       id="grid22" />
    <inkscape:grid
       type="xygrid"
       id="grid3694" />
  </sodipodi:namedview>
  <metadata
     id="metadata5">
    <rdf:RDF>
      <cc:Work
         rdf:about="">
        <dc:format>image/svg+xml</dc:format>
        <dc:type
           rdf:resource="http://purl.org/dc/dcmitype/StillImage" />
        <dc:title></dc:title>
      </cc:Work>
    </rdf:RDF>
  </metadata>
  <g
     inkscape:label="Layer 1"
     inkscape:groupmode="layer"
     id="layer1"
     transform="translate(0,3)">
    <path
       style="fill:#000000;stroke:#000000;stroke-width:0.26458332px;stroke-linecap:butt;stroke-linejoin:miter;stroke-opacity:1"
       d="m 84.666666,85.333333 c 0,0 5.291666,-21.166667 15.875004,-15.875 10.58333,5.291667 15.875,15.875 15.875,21.166666 0,5.291667 -21.166671,52.916671 -15.875,79.375001 5.29166,26.45833 31.74999,47.625 37.04166,47.625 5.29167,0 26.45833,5.29166 47.625,-10.58334 21.16667,-15.875 47.625,-47.62499 47.625,-68.79166 0,-21.16667 15.875,-63.5 -10.58333,-79.375 -26.45834,-15.875 -42.33334,5.291666 -42.33334,5.291666 0,0 -21.16666,31.75 -15.875,42.333334 5.29167,10.58333 10.58334,52.91667 47.625,63.5 37.04167,10.58333 37.04167,0 37.04167,0 L 238.125,154.125 c 0,0 -42.33334,5.29167 -47.625,-21.16667 C 185.20833,106.5 185.20833,74.75 195.79166,74.75 c 10.58334,0 31.75,-10.583334 26.45834,15.874999 -5.29167,26.458331 5.29166,74.083331 -31.75,95.250001 -37.04167,21.16666 -58.20834,5.29166 -63.5,0 -5.29167,-5.29167 -10.58333,-26.45833 0,-52.91667 C 137.58333,106.5 142.875,74.75 127,64.166666 111.125,53.583333 95.249999,48.291667 89.958332,53.583333 84.666666,58.875 68.791666,69.458333 74.083332,74.75 c 5.291667,5.291666 10.583334,10.583333 10.583334,10.583333 z"
       id="path4670"
       inkscape:connector-curvature="0" />
  </g>
  <g
     inkscape:groupmode="layer"
     id="layer2"
     inkscape:label="Layer 2"
     transform="translate(0,3)" />
</svg>
