<?xml version="1.0" encoding="UTF-8" standalone="no"?>
<!-- Created with Inkscape (http://www.inkscape.org/) -->

<svg
   xmlns:dc="http://purl.org/dc/elements/1.1/"
   xmlns:cc="http://creativecommons.org/ns#"
   xmlns:rdf="http://www.w3.org/1999/02/22-rdf-syntax-ns#"
   xmlns:svg="http://www.w3.org/2000/svg"
   xmlns="http://www.w3.org/2000/svg"
   xmlns:sodipodi="http://sodipodi.sourceforge.net/DTD/sodipodi-0.dtd"
   xmlns:inkscape="http://www.inkscape.org/namespaces/inkscape"
   width="300mm"
   height="300mm"
   viewBox="0 0 300 300"
   version="1.1"
   id="svg8"
   inkscape:version="0.92.1 r15371"
   sodipodi:docname="badlit MA.svg">
  <defs
     id="defs2" />
  <sodipodi:namedview
     id="base"
     pagecolor="#ffffff"
     bordercolor="#666666"
     borderopacity="1.0"
     inkscape:pageopacity="0.0"
     inkscape:pageshadow="2"
     inkscape:zoom="0.7"
     inkscape:cx="422.74342"
     inkscape:cy="571.96675"
     inkscape:document-units="mm"
     inkscape:current-layer="layer1"
     showgrid="true"
     showguides="true"
     inkscape:window-width="1920"
     inkscape:window-height="1027"
     inkscape:window-x="1912"
     inkscape:window-y="-8"
     inkscape:window-maximized="1">
    <inkscape:grid
       type="xygrid"
       id="grid22" />
    <inkscape:grid
       type="xygrid"
       id="grid3694" />
  </sodipodi:namedview>
  <metadata
     id="metadata5">
    <rdf:RDF>
      <cc:Work
         rdf:about="">
        <dc:format>image/svg+xml</dc:format>
        <dc:type
           rdf:resource="http://purl.org/dc/dcmitype/StillImage" />
        <dc:title></dc:title>
      </cc:Work>
    </rdf:RDF>
  </metadata>
  <g
     inkscape:label="Layer 1"
     inkscape:groupmode="layer"
     id="layer1"
     transform="translate(0,3)">
    <path
       style="fill:#000000;stroke:#000000;stroke-width:0.99999994px;stroke-linecap:butt;stroke-linejoin:miter;stroke-opacity:1"
       d="M 840 233.85742 C 819.99999 233.85742 739.99997 233.85742 720 273.85742 C 699.99999 313.85742 700 373.85743 700 393.85742 C 700 413.85743 720 493.85742 720 493.85742 L 460 493.85742 C 460 493.85742 499.99997 373.85742 480 333.85742 C 459.99999 293.85742 440.00003 253.85742 400 253.85742 C 360.00001 253.85742 280 233.85742 280 273.85742 C 280 313.85742 300 353.85742 300 353.85742 C 300 353.85742 300 293.85742 340 293.85742 C 380.00002 293.85742 420 393.85742 420 393.85742 C 420 393.85742 420.00001 533.85743 400 573.85742 C 380.00003 613.85745 340 653.85742 360 713.85742 C 380.00002 773.85742 440.00001 853.85742 540 853.85742 C 639.99999 853.85742 780.00003 813.85742 800 753.85742 C 820.00001 693.85742 799.99997 553.85743 780 533.85742 C 759.99999 513.85741 760 373.85742 760 373.85742 C 760 373.85742 760 273.85742 820 293.85742 C 880 313.85742 880 353.85742 880 353.85742 L 920 313.85742 C 920 313.85742 859.99997 233.85742 840 233.85742 z M 460 573.85742 L 720 573.85742 C 739.99997 573.85742 739.99997 693.85743 720 733.85742 C 699.99999 773.85745 619.99999 793.85742 580 793.85742 C 540.00001 793.85742 479.99999 773.85745 440 733.85742 C 399.99997 693.85743 460 573.85742 460 573.85742 z "
       transform="matrix(0.26458333,0,0,0.26458333,0,-3)"
       id="path4709" />
  </g>
  <g
     inkscape:groupmode="layer"
     id="layer2"
     inkscape:label="Layer 2"
     transform="translate(0,3)" />
</svg>
