<?xml version="1.0" encoding="UTF-8" standalone="no"?>
<!-- Created with Inkscape (http://www.inkscape.org/) -->

<svg
   xmlns:dc="http://purl.org/dc/elements/1.1/"
   xmlns:cc="http://creativecommons.org/ns#"
   xmlns:rdf="http://www.w3.org/1999/02/22-rdf-syntax-ns#"
   xmlns:svg="http://www.w3.org/2000/svg"
   xmlns="http://www.w3.org/2000/svg"
   xmlns:sodipodi="http://sodipodi.sourceforge.net/DTD/sodipodi-0.dtd"
   xmlns:inkscape="http://www.inkscape.org/namespaces/inkscape"
   width="300mm"
   height="300mm"
   viewBox="0 0 300 300"
   version="1.1"
   id="svg8"
   inkscape:version="0.92.1 r15371"
   sodipodi:docname="badlit SA.svg">
  <defs
     id="defs2" />
  <sodipodi:namedview
     id="base"
     pagecolor="#ffffff"
     bordercolor="#666666"
     borderopacity="1.0"
     inkscape:pageopacity="0.0"
     inkscape:pageshadow="2"
     inkscape:zoom="0.7"
     inkscape:cx="422.74342"
     inkscape:cy="571.96675"
     inkscape:document-units="mm"
     inkscape:current-layer="layer1"
     showgrid="true"
     showguides="true"
     inkscape:window-width="1920"
     inkscape:window-height="1027"
     inkscape:window-x="1912"
     inkscape:window-y="-8"
     inkscape:window-maximized="1">
    <inkscape:grid
       type="xygrid"
       id="grid22" />
    <inkscape:grid
       type="xygrid"
       id="grid3694" />
  </sodipodi:namedview>
  <metadata
     id="metadata5">
    <rdf:RDF>
      <cc:Work
         rdf:about="">
        <dc:format>image/svg+xml</dc:format>
        <dc:type
           rdf:resource="http://purl.org/dc/dcmitype/StillImage" />
        <dc:title></dc:title>
      </cc:Work>
    </rdf:RDF>
  </metadata>
  <g
     inkscape:label="Layer 1"
     inkscape:groupmode="layer"
     id="layer1"
     transform="translate(0,3)">
    <path
       style="fill:#000000;stroke:#000000;stroke-width:0.26458332px;stroke-linecap:butt;stroke-linejoin:miter;stroke-opacity:1"
       d="m 79.374999,95.916666 c 0,0 5.291667,-21.166666 15.875,-15.875 C 105.83333,85.333333 111.125,101.20833 111.125,106.5 c 0,5.29167 -21.166668,52.91667 -15.875001,79.375 C 100.54167,212.33333 111.125,233.5 127,233.5 c 15.875,0 37.04166,-5.29167 42.33333,-26.45834 5.29167,-21.16666 15.875,-79.37499 10.58333,-89.95833 -5.29166,-10.58333 0,-37.041664 10.58334,-37.041664 10.58333,0 21.16666,10.583333 21.16666,21.166664 0,10.58334 5.29167,52.91667 -5.29166,79.375 -10.58334,26.45833 -5.29167,37.04167 5.29166,47.625 10.58334,10.58333 21.16667,0 21.16667,0 0,0 -10.58333,-10.58333 -15.875,-15.875 C 211.66666,207.04166 211.66666,185.875 222.25,170 c 10.58333,-15.875 15.875,-68.79167 0,-89.958334 C 206.375,58.875 179.91666,64.166666 169.33333,74.75 158.75,85.333333 158.75,132.95833 164.04166,148.83333 c 5.29167,15.875 -5.29166,47.625 -15.875,58.20833 -10.58333,10.58334 -26.45833,5.29167 -31.74999,-5.29166 -5.29167,-10.58334 -5.29167,-31.75 5.29166,-68.79167 10.58333,-37.041664 0,-52.916664 -5.29166,-58.20833 -5.29167,-5.291667 -15.875,-15.875 -26.458338,-10.583334 -10.583333,5.291667 -15.875,21.166667 -15.875,21.166667 z"
       id="path4626"
       inkscape:connector-curvature="0" />
  </g>
  <g
     inkscape:groupmode="layer"
     id="layer2"
     inkscape:label="Layer 2"
     transform="translate(0,3)" />
</svg>
