<?xml version="1.0" encoding="UTF-8" standalone="no"?>
<!-- Created with Inkscape (http://www.inkscape.org/) -->

<svg
   xmlns:dc="http://purl.org/dc/elements/1.1/"
   xmlns:cc="http://creativecommons.org/ns#"
   xmlns:rdf="http://www.w3.org/1999/02/22-rdf-syntax-ns#"
   xmlns:svg="http://www.w3.org/2000/svg"
   xmlns="http://www.w3.org/2000/svg"
   xmlns:sodipodi="http://sodipodi.sourceforge.net/DTD/sodipodi-0.dtd"
   xmlns:inkscape="http://www.inkscape.org/namespaces/inkscape"
   width="300mm"
   height="300mm"
   viewBox="0 0 300 300"
   version="1.1"
   id="svg8"
   sodipodi:docname="badlit I.svg"
   inkscape:version="0.92.1 r15371">
  <defs
     id="defs2" />
  <sodipodi:namedview
     id="base"
     pagecolor="#ffffff"
     bordercolor="#666666"
     borderopacity="1.0"
     inkscape:pageopacity="0.0"
     inkscape:pageshadow="2"
     inkscape:zoom="0.7"
     inkscape:cx="320.78885"
     inkscape:cy="571.96675"
     inkscape:document-units="mm"
     inkscape:current-layer="layer1"
     showgrid="true"
     showguides="true"
     inkscape:window-width="1920"
     inkscape:window-height="1027"
     inkscape:window-x="1912"
     inkscape:window-y="-8"
     inkscape:window-maximized="1">
    <inkscape:grid
       type="xygrid"
       id="grid22" />
    <inkscape:grid
       type="xygrid"
       id="grid3694" />
  </sodipodi:namedview>
  <metadata
     id="metadata5">
    <rdf:RDF>
      <cc:Work
         rdf:about="">
        <dc:format>image/svg+xml</dc:format>
        <dc:type
           rdf:resource="http://purl.org/dc/dcmitype/StillImage" />
        <dc:title></dc:title>
      </cc:Work>
    </rdf:RDF>
  </metadata>
  <g
     inkscape:label="Layer 1"
     inkscape:groupmode="layer"
     id="layer1"
     transform="translate(0,3)">
    <path
       style="fill:#000000;stroke:#000000;stroke-width:0.26458332px;stroke-linecap:butt;stroke-linejoin:miter;stroke-opacity:1"
       d="m 89.958332,196.45833 v 15.875 c 0,0 21.166668,5.29167 31.749998,-5.29166 10.58333,-10.58334 10.58333,-31.75 10.58333,-31.75 0,0 -5.29166,-21.16667 -21.16666,-42.33334 -15.875001,-21.16666 0,-52.916661 0,-52.916661 0,0 10.58333,-10.583333 21.16666,-5.291667 10.58334,5.291667 21.16667,21.166667 21.16667,21.166667 0,0 5.29167,5.291671 10.58333,0 5.29167,-5.291667 10.58334,-31.75 21.16667,-26.458333 10.58333,5.291666 26.45833,10.583333 26.45833,31.750004 0,21.16666 -31.75,58.20833 -31.75,68.79166 0,10.58333 0,37.04167 21.16667,47.625 21.16667,10.58333 31.75,-5.29167 31.75,-5.29167 l -5.29167,-15.875 c 0,0 -15.875,5.29167 -26.45833,-5.29166 C 190.5,180.58333 211.66666,154.125 211.66666,154.125 c 0,0 26.45834,-31.75 21.16667,-52.91666 -5.29167,-21.166671 -15.875,-31.750004 -15.875,-31.750004 0,0 -10.58333,-15.875 -26.45833,-15.875 -15.875,0 -31.75,15.875 -31.75,15.875 0,0 -5.29167,-10.583334 -21.16667,-15.875 -15.875,-5.291667 -42.333331,10.583333 -42.333331,10.583333 0,0 -15.875,21.166666 -10.583333,47.625001 5.291666,26.45833 21.166664,47.625 21.166664,47.625 0,0 15.875,10.58333 10.58334,26.45833 -5.29167,15.875 -15.875,15.875 -15.875,15.875 z"
       id="path4544"
       inkscape:connector-curvature="0" />
  </g>
  <g
     inkscape:groupmode="layer"
     id="layer2"
     inkscape:label="Layer 2"
     transform="translate(0,3)" />
</svg>
