<?xml version="1.0" standalone="no"?>
<!DOCTYPE svg PUBLIC "-//W3C//DTD SVG 1.1//EN" "http://www.w3.org/Graphics/SVG/1.1/DTD/svg11.dtd" >
<svg xmlns="http://www.w3.org/2000/svg" xmlns:xlink="http://www.w3.org/1999/xlink" version="1.1" viewBox="-1007 -410 0 2048">
  <g transform="matrix(1 0 0 -1 0 1638)">
   <path fill="currentColor"
d="M-692 -80l-48.5156 50.5508q-1.48438 0.449219 -31.4844 1.44922t-58 1t-48 -8.5t-37 -21t-39 -32.5t-36 -65t-16 -88t33 -76t116 -36.5t110 -8.5t48 19.5t20 36.5t-13 15t-32 -0.5t-53 -8.5t-59 -1.5t-49 17.5t-35 40t-9 48.5t12 44.5t28 35t44 16.5t60 3.5t54 -8.5
q26.1592 -10.5882 37 -3.5q14 9 2 29z" />
  </g>

</svg>
