<?xml version="1.0" encoding="UTF-8" standalone="no"?>
<!-- Created with Inkscape (http://www.inkscape.org/) -->

<svg
   xmlns:dc="http://purl.org/dc/elements/1.1/"
   xmlns:cc="http://creativecommons.org/ns#"
   xmlns:rdf="http://www.w3.org/1999/02/22-rdf-syntax-ns#"
   xmlns:svg="http://www.w3.org/2000/svg"
   xmlns="http://www.w3.org/2000/svg"
   xmlns:sodipodi="http://sodipodi.sourceforge.net/DTD/sodipodi-0.dtd"
   xmlns:inkscape="http://www.inkscape.org/namespaces/inkscape"
   width="300mm"
   height="300mm"
   viewBox="0 0 300 300"
   version="1.1"
   id="svg8"
   inkscape:version="0.92.1 r15371"
   sodipodi:docname="badlit GA.svg">
  <defs
     id="defs2" />
  <sodipodi:namedview
     id="base"
     pagecolor="#ffffff"
     bordercolor="#666666"
     borderopacity="1.0"
     inkscape:pageopacity="0.0"
     inkscape:pageshadow="2"
     inkscape:zoom="0.7"
     inkscape:cx="422.74342"
     inkscape:cy="571.96675"
     inkscape:document-units="mm"
     inkscape:current-layer="layer1"
     showgrid="true"
     showguides="true"
     inkscape:window-width="1920"
     inkscape:window-height="1027"
     inkscape:window-x="1912"
     inkscape:window-y="-8"
     inkscape:window-maximized="1">
    <inkscape:grid
       type="xygrid"
       id="grid22" />
    <inkscape:grid
       type="xygrid"
       id="grid3694" />
  </sodipodi:namedview>
  <metadata
     id="metadata5">
    <rdf:RDF>
      <cc:Work
         rdf:about="">
        <dc:format>image/svg+xml</dc:format>
        <dc:type
           rdf:resource="http://purl.org/dc/dcmitype/StillImage" />
        <dc:title></dc:title>
      </cc:Work>
    </rdf:RDF>
  </metadata>
  <g
     inkscape:label="Layer 1"
     inkscape:groupmode="layer"
     id="layer1"
     transform="translate(0,3)">
    <path
       style="fill:#000000;stroke:#000000;stroke-width:0.26458332px;stroke-linecap:butt;stroke-linejoin:miter;stroke-opacity:1"
       d="m 84.666666,74.75 c 0,0 15.875004,-15.875 26.458334,-10.583334 C 121.70833,69.458333 127,74.75 127,80.041666 c 0,5.291667 10.58333,21.166664 -5.29167,31.750004 -15.875,10.58333 -15.875,15.875 -15.875,15.875 L 116.41667,138.25 c 0,0 15.87499,5.29167 15.87499,21.16667 0,15.875 -10.58333,21.16666 -15.87499,26.45833 -5.29167,5.29166 -26.458338,5.29166 -26.458338,0 0,-5.29167 0,-5.29167 0,-5.29167 l -10.583333,15.875 c 0,0 15.875,10.58333 26.458331,10.58333 10.58334,0 31.75,-15.875 37.04167,-26.45833 5.29166,-10.58333 5.29166,-26.45833 5.29166,-31.75 0,-5.29166 -15.875,-21.16666 -15.875,-21.16666 0,0 15.875,-10.58334 15.875,-26.45834 0,-15.874997 0,-26.45833 0,-26.45833 0,0 15.875,-15.875 31.75,-10.583334 15.875,5.291667 26.45834,10.583334 26.45834,15.875 0,5.291667 10.58333,15.875 0,31.750004 -10.58334,15.875 -15.875,37.04166 -15.875,37.04166 0,0 -5.29167,10.58334 0,26.45834 5.29166,15.87499 10.58333,21.16666 15.875,26.45833 5.29166,5.29166 15.875,5.29166 15.875,5.29166 V 185.875 c 0,0 -15.875,0 -15.875,-21.16667 0,-21.16666 15.875,-42.33333 15.875,-42.33333 0,0 10.58333,-31.750001 0,-47.625 -10.58334,-15.875 -31.75,-26.458333 -42.33334,-26.458333 -10.58333,0 -31.75,5.291666 -37.04166,10.583333 -5.29167,5.291666 -21.16667,-10.583333 -21.16667,-10.583333 0,0 -10.58333,-5.291667 -21.16666,0 C 89.958332,53.583333 79.374999,58.875 79.374999,58.875 Z"
       id="path4725"
       inkscape:connector-curvature="0" />
  </g>
  <g
     inkscape:groupmode="layer"
     id="layer2"
     inkscape:label="Layer 2"
     transform="translate(0,3)" />
</svg>
