<?xml version="1.0" encoding="UTF-8" standalone="no"?>
<!-- Created with Inkscape (http://www.inkscape.org/) -->

<svg
   xmlns:dc="http://purl.org/dc/elements/1.1/"
   xmlns:cc="http://creativecommons.org/ns#"
   xmlns:rdf="http://www.w3.org/1999/02/22-rdf-syntax-ns#"
   xmlns:svg="http://www.w3.org/2000/svg"
   xmlns="http://www.w3.org/2000/svg"
   xmlns:sodipodi="http://sodipodi.sourceforge.net/DTD/sodipodi-0.dtd"
   xmlns:inkscape="http://www.inkscape.org/namespaces/inkscape"
   width="300mm"
   height="300mm"
   viewBox="0 0 300 300"
   version="1.1"
   id="svg8"
   inkscape:version="0.92.1 r15371"
   sodipodi:docname="badlit kudlit panantang.svg">
  <defs
     id="defs2" />
  <sodipodi:namedview
     id="base"
     pagecolor="#ffffff"
     bordercolor="#666666"
     borderopacity="1.0"
     inkscape:pageopacity="0.0"
     inkscape:pageshadow="2"
     inkscape:zoom="0.7"
     inkscape:cx="437.09743"
     inkscape:cy="571.96675"
     inkscape:document-units="mm"
     inkscape:current-layer="layer1"
     showgrid="true"
     showguides="true"
     inkscape:window-width="1920"
     inkscape:window-height="1027"
     inkscape:window-x="1912"
     inkscape:window-y="-8"
     inkscape:window-maximized="1">
    <inkscape:grid
       type="xygrid"
       id="grid22" />
    <inkscape:grid
       type="xygrid"
       id="grid3694" />
  </sodipodi:namedview>
  <metadata
     id="metadata5">
    <rdf:RDF>
      <cc:Work
         rdf:about="">
        <dc:format>image/svg+xml</dc:format>
        <dc:type
           rdf:resource="http://purl.org/dc/dcmitype/StillImage" />
        <dc:title></dc:title>
      </cc:Work>
    </rdf:RDF>
  </metadata>
  <g
     inkscape:label="Layer 1"
     inkscape:groupmode="layer"
     id="layer1"
     transform="translate(0,3)">
    <path
       style="fill:#000000;stroke:#000000;stroke-width:0.26458332px;stroke-linecap:butt;stroke-linejoin:miter;stroke-opacity:1"
       d="m 275.16666,95.916666 c 0,0 -10.58333,-10.583333 -15.875,-10.583333 -5.29166,0 -15.875,5.291666 -15.875,10.583333 0,5.291664 -10.58333,31.750004 5.29167,47.625004 15.875,15.875 31.75,68.79166 26.45833,79.37499 C 269.875,233.5 222.25,275.83334 206.375,281.125 c -15.875,5.29167 -21.16667,-10.58333 -21.16667,-10.58333 0,0 21.16667,0 37.04167,-15.87501 15.875,-15.875 37.04166,-21.16666 37.04166,-37.04166 0,-15.875 0,-42.33333 -10.58333,-52.91667 -10.58333,-10.58333 -31.75,-47.625 -21.16667,-63.5 C 238.125,85.333333 248.70833,64.166666 264.58333,74.75 c 15.875,10.583333 10.58333,21.166666 10.58333,21.166666 z"
       id="path20"
       inkscape:connector-curvature="0" />
  </g>
  <g
     inkscape:groupmode="layer"
     id="layer2"
     inkscape:label="Layer 2"
     transform="translate(0,3)" />
</svg>
