<?xml version="1.0" encoding="UTF-8" standalone="no"?>
<!-- Created with Inkscape (http://www.inkscape.org/) -->

<svg
   xmlns:dc="http://purl.org/dc/elements/1.1/"
   xmlns:cc="http://creativecommons.org/ns#"
   xmlns:rdf="http://www.w3.org/1999/02/22-rdf-syntax-ns#"
   xmlns:svg="http://www.w3.org/2000/svg"
   xmlns="http://www.w3.org/2000/svg"
   xmlns:sodipodi="http://sodipodi.sourceforge.net/DTD/sodipodi-0.dtd"
   xmlns:inkscape="http://www.inkscape.org/namespaces/inkscape"
   width="300mm"
   height="300mm"
   viewBox="0 0 300 300"
   version="1.1"
   id="svg8"
   inkscape:version="0.92.1 r15371"
   sodipodi:docname="badlit DA.svg">
  <defs
     id="defs2" />
  <sodipodi:namedview
     id="base"
     pagecolor="#ffffff"
     bordercolor="#666666"
     borderopacity="1.0"
     inkscape:pageopacity="0.0"
     inkscape:pageshadow="2"
     inkscape:zoom="0.7"
     inkscape:cx="422.74342"
     inkscape:cy="571.96675"
     inkscape:document-units="mm"
     inkscape:current-layer="layer1"
     showgrid="true"
     showguides="true"
     inkscape:window-width="1920"
     inkscape:window-height="1027"
     inkscape:window-x="1912"
     inkscape:window-y="-8"
     inkscape:window-maximized="1">
    <inkscape:grid
       type="xygrid"
       id="grid22" />
    <inkscape:grid
       type="xygrid"
       id="grid3694" />
  </sodipodi:namedview>
  <metadata
     id="metadata5">
    <rdf:RDF>
      <cc:Work
         rdf:about="">
        <dc:format>image/svg+xml</dc:format>
        <dc:type
           rdf:resource="http://purl.org/dc/dcmitype/StillImage" />
        <dc:title></dc:title>
      </cc:Work>
    </rdf:RDF>
  </metadata>
  <g
     inkscape:label="Layer 1"
     inkscape:groupmode="layer"
     id="layer1"
     transform="translate(0,3)">
    <path
       style="fill:#000000;stroke:#000000;stroke-width:0.26458332px;stroke-linecap:butt;stroke-linejoin:miter;stroke-opacity:1"
       d="m 74.083332,74.75 c 0,0 5.291667,21.166666 15.875,26.45833 10.583338,5.29167 37.041668,0 37.041668,0 v 42.33334 h 10.58333 c 0,0 15.875,-10.58334 26.45833,-5.29167 10.58334,5.29167 26.45834,15.875 26.45834,26.45833 0,10.58334 -5.29167,26.45833 -26.45834,31.75 C 142.875,201.75 116.41667,180.58333 111.125,175.29167 105.83333,170 95.249999,185.875 95.249999,185.875 c 0,0 21.166671,21.16666 26.458331,21.16666 5.29167,0 26.45833,10.58334 37.04167,10.58334 10.58333,0 42.33333,-21.16667 42.33333,-26.45834 0,-5.29166 10.58333,-26.45833 5.29167,-37.04166 -5.29167,-10.58333 -15.875,-26.45833 -26.45834,-26.45833 -10.58333,0 -31.75,0 -31.75,0 V 95.916666 c 0,0 37.04167,-26.458333 42.33334,-21.166666 5.29166,5.291666 15.875,21.166666 21.16666,21.166666 5.29167,0 15.875,-5.291667 15.875,-5.291667 0,0 -10.58333,-26.458333 -31.75,-26.458333 -21.16666,0 -26.45833,-5.291666 -42.33333,5.291667 -15.875,10.583333 -47.625,26.458333 -52.91666,21.166666 C 95.249999,85.333333 84.666666,64.166666 84.666666,64.166666 Z"
       id="path4738"
       inkscape:connector-curvature="0" />
  </g>
  <g
     inkscape:groupmode="layer"
     id="layer2"
     inkscape:label="Layer 2"
     transform="translate(0,3)" />
</svg>
