<?xml version="1.0" encoding="UTF-8" standalone="no"?>
<!-- Created with Inkscape (http://www.inkscape.org/) -->

<svg
   xmlns:dc="http://purl.org/dc/elements/1.1/"
   xmlns:cc="http://creativecommons.org/ns#"
   xmlns:rdf="http://www.w3.org/1999/02/22-rdf-syntax-ns#"
   xmlns:svg="http://www.w3.org/2000/svg"
   xmlns="http://www.w3.org/2000/svg"
   xmlns:sodipodi="http://sodipodi.sourceforge.net/DTD/sodipodi-0.dtd"
   xmlns:inkscape="http://www.inkscape.org/namespaces/inkscape"
   width="300mm"
   height="300mm"
   viewBox="0 0 300 300"
   version="1.1"
   id="svg8"
   inkscape:version="0.92.1 r15371"
   sodipodi:docname="badlit NA.svg">
  <defs
     id="defs2" />
  <sodipodi:namedview
     id="base"
     pagecolor="#ffffff"
     bordercolor="#666666"
     borderopacity="1.0"
     inkscape:pageopacity="0.0"
     inkscape:pageshadow="2"
     inkscape:zoom="0.7"
     inkscape:cx="422.74342"
     inkscape:cy="571.96675"
     inkscape:document-units="mm"
     inkscape:current-layer="layer1"
     showgrid="true"
     showguides="true"
     inkscape:window-width="1920"
     inkscape:window-height="1027"
     inkscape:window-x="1912"
     inkscape:window-y="-8"
     inkscape:window-maximized="1">
    <inkscape:grid
       type="xygrid"
       id="grid22" />
    <inkscape:grid
       type="xygrid"
       id="grid3694" />
  </sodipodi:namedview>
  <metadata
     id="metadata5">
    <rdf:RDF>
      <cc:Work
         rdf:about="">
        <dc:format>image/svg+xml</dc:format>
        <dc:type
           rdf:resource="http://purl.org/dc/dcmitype/StillImage" />
        <dc:title></dc:title>
      </cc:Work>
    </rdf:RDF>
  </metadata>
  <g
     inkscape:label="Layer 1"
     inkscape:groupmode="layer"
     id="layer1"
     transform="translate(0,3)">
    <path
       style="fill:#000000;stroke:#000000;stroke-width:0.26458332px;stroke-linecap:butt;stroke-linejoin:miter;stroke-opacity:1"
       d="m 89.958332,117.08333 c 0,0 10.583338,-31.749997 31.749998,-37.041664 21.16667,-5.291666 26.45833,10.583333 26.45833,15.875 0,5.291664 0,21.166664 -15.875,31.750004 -15.87499,10.58333 0,15.875 0,15.875 0,0 31.75,-10.58334 37.04167,10.58333 5.29167,21.16667 5.29167,21.16667 0,31.75 -5.29167,10.58333 -21.16667,26.45833 -37.04167,10.58333 C 116.41667,180.58333 116.41667,170 116.41667,170 c 0,0 -10.58334,-10.58333 -15.875,5.29167 -5.291671,15.87499 15.875,37.04166 15.875,37.04166 0,0 21.16666,15.875 47.62499,5.29167 26.45834,-10.58334 31.75,-47.625 31.75,-47.625 0,0 5.29167,-21.16667 -15.875,-31.75 -21.16666,-10.58333 -26.45833,-15.875 -26.45833,-15.875 0,0 15.875,-5.29167 15.875,-15.875 0,-10.583334 0,-21.166667 -5.29167,-21.166667 -5.29166,0 0,-10.583333 10.58334,0 10.58333,10.583333 15.875,15.874997 21.16666,26.458337 5.29167,10.58333 21.16667,5.29166 21.16667,5.29166 l -5.29167,-21.166664 c 0,0 -5.29166,-21.166666 -26.45833,-26.458333 -21.16667,-5.291667 -31.75,-15.875 -52.91667,-10.583333 -21.16666,5.291666 -37.041661,10.583333 -42.333328,21.166666 -5.291666,10.583333 -15.875,21.166664 -15.875,31.750004 0,10.58333 15.875,5.29166 15.875,5.29166 z"
       id="path4683"
       inkscape:connector-curvature="0" />
  </g>
  <g
     inkscape:groupmode="layer"
     id="layer2"
     inkscape:label="Layer 2"
     transform="translate(0,3)" />
</svg>
