<?xml version="1.0" encoding="UTF-8" standalone="no"?>
<!-- Created with Inkscape (http://www.inkscape.org/) -->

<svg
   xmlns:dc="http://purl.org/dc/elements/1.1/"
   xmlns:cc="http://creativecommons.org/ns#"
   xmlns:rdf="http://www.w3.org/1999/02/22-rdf-syntax-ns#"
   xmlns:svg="http://www.w3.org/2000/svg"
   xmlns="http://www.w3.org/2000/svg"
   xmlns:sodipodi="http://sodipodi.sourceforge.net/DTD/sodipodi-0.dtd"
   xmlns:inkscape="http://www.inkscape.org/namespaces/inkscape"
   width="300mm"
   height="300mm"
   viewBox="0 0 300 300"
   version="1.1"
   id="svg8"
   inkscape:version="0.92.1 r15371"
   sodipodi:docname="badlit LA.svg">
  <defs
     id="defs2" />
  <sodipodi:namedview
     id="base"
     pagecolor="#ffffff"
     bordercolor="#666666"
     borderopacity="1.0"
     inkscape:pageopacity="0.0"
     inkscape:pageshadow="2"
     inkscape:zoom="0.7"
     inkscape:cx="422.74342"
     inkscape:cy="571.96675"
     inkscape:document-units="mm"
     inkscape:current-layer="layer1"
     showgrid="true"
     showguides="true"
     inkscape:window-width="1920"
     inkscape:window-height="1027"
     inkscape:window-x="1912"
     inkscape:window-y="-8"
     inkscape:window-maximized="1">
    <inkscape:grid
       type="xygrid"
       id="grid22" />
    <inkscape:grid
       type="xygrid"
       id="grid3694" />
  </sodipodi:namedview>
  <metadata
     id="metadata5">
    <rdf:RDF>
      <cc:Work
         rdf:about="">
        <dc:format>image/svg+xml</dc:format>
        <dc:type
           rdf:resource="http://purl.org/dc/dcmitype/StillImage" />
        <dc:title></dc:title>
      </cc:Work>
    </rdf:RDF>
  </metadata>
  <g
     inkscape:label="Layer 1"
     inkscape:groupmode="layer"
     id="layer1"
     transform="translate(0,3)">
    <path
       style="fill:#000000;stroke:#000000;stroke-width:0.26458332px;stroke-linecap:butt;stroke-linejoin:miter;stroke-opacity:1"
       d="m 89.958332,101.20833 c 0,0 5.291667,-21.166664 15.874998,-26.45833 10.58334,-5.291667 26.45833,-10.583334 37.04167,5.291666 10.58333,15.875 5.29166,37.041664 -5.29167,42.333334 -10.58333,5.29167 0,15.875 0,15.875 0,0 5.29167,-10.58333 15.875,-5.29167 10.58333,5.29167 31.75,5.29167 31.75,26.45834 0,21.16666 -10.58333,42.33333 -21.16667,42.33333 -10.58333,0 -31.75,10.58333 -42.33333,-15.875 -10.58333,-26.45833 -15.875,0 -15.875,0 0,0 0,21.16666 15.875,26.45833 15.875,5.29167 21.16667,15.875 37.04167,10.58333 15.875,-5.29166 37.04166,-21.16666 42.33333,-31.75 5.29167,-10.58333 10.58333,-31.74999 0,-47.62499 C 190.5,127.66667 164.04166,122.375 164.04166,122.375 l 5.29167,-15.875 c 0,0 10.58333,10.58333 26.45833,5.29167 15.875,-5.29167 37.04167,-15.875004 37.04167,-26.458337 0,-10.583333 0,-26.458333 0,-26.458333 h -15.875 c 0,0 0,26.458333 -10.58333,31.749999 -10.58334,5.291667 -26.45834,15.875001 -37.04167,0 C 158.75,74.75 153.45833,48.291667 121.70833,53.583333 89.958332,58.875 79.374999,80.041666 79.374999,80.041666 l -5.291667,21.166664 z"
       id="path4657"
       inkscape:connector-curvature="0" />
  </g>
  <g
     inkscape:groupmode="layer"
     id="layer2"
     inkscape:label="Layer 2"
     transform="translate(0,3)" />
</svg>
