<?xml version="1.0" encoding="UTF-8" standalone="no"?>
<!-- Created with Inkscape (http://www.inkscape.org/) -->

<svg
   xmlns:dc="http://purl.org/dc/elements/1.1/"
   xmlns:cc="http://creativecommons.org/ns#"
   xmlns:rdf="http://www.w3.org/1999/02/22-rdf-syntax-ns#"
   xmlns:svg="http://www.w3.org/2000/svg"
   xmlns="http://www.w3.org/2000/svg"
   xmlns:sodipodi="http://sodipodi.sourceforge.net/DTD/sodipodi-0.dtd"
   xmlns:inkscape="http://www.inkscape.org/namespaces/inkscape"
   width="300mm"
   height="300mm"
   viewBox="0 0 300 300"
   version="1.1"
   id="svg8"
   inkscape:version="0.92.1 r15371"
   sodipodi:docname="badlit NGA.svg">
  <defs
     id="defs2" />
  <sodipodi:namedview
     id="base"
     pagecolor="#ffffff"
     bordercolor="#666666"
     borderopacity="1.0"
     inkscape:pageopacity="0.0"
     inkscape:pageshadow="2"
     inkscape:zoom="0.7"
     inkscape:cx="125.78885"
     inkscape:cy="571.96675"
     inkscape:document-units="mm"
     inkscape:current-layer="layer1"
     showgrid="true"
     showguides="true"
     inkscape:window-width="1920"
     inkscape:window-height="1027"
     inkscape:window-x="1912"
     inkscape:window-y="-8"
     inkscape:window-maximized="1">
    <inkscape:grid
       type="xygrid"
       id="grid22" />
    <inkscape:grid
       type="xygrid"
       id="grid3694" />
  </sodipodi:namedview>
  <metadata
     id="metadata5">
    <rdf:RDF>
      <cc:Work
         rdf:about="">
        <dc:format>image/svg+xml</dc:format>
        <dc:type
           rdf:resource="http://purl.org/dc/dcmitype/StillImage" />
        <dc:title></dc:title>
      </cc:Work>
    </rdf:RDF>
  </metadata>
  <g
     inkscape:label="Layer 1"
     inkscape:groupmode="layer"
     id="layer1"
     transform="translate(0,3)">
    <path
       style="fill:#000000;stroke:#000000;stroke-width:0.26458332px;stroke-linecap:butt;stroke-linejoin:miter;stroke-opacity:1"
       d="m 74.083332,64.166666 c 0,0 42.333338,21.166667 42.333338,47.625004 C 116.41667,138.25 127,154.125 100.54167,170 74.083332,185.875 74.083332,191.16666 74.083332,191.16666 l 5.291667,15.875 c 0,0 26.458331,-10.58333 37.041671,-26.45833 10.58333,-15.875 15.87499,-26.45833 15.87499,-37.04166 0,-10.58334 15.875,-15.875 15.875,-15.875 0,0 10.58334,31.75 31.75,31.75 21.16667,0 15.875,5.29166 31.75,-5.29167 15.875,-10.58333 26.45834,-10.58333 26.45834,-31.75 0,-21.16667 0,-47.625 -15.875,-52.916667 -15.875,-5.291667 -31.75,-15.875 -47.625,-5.291667 C 158.75,74.75 164.04166,85.333333 164.04166,85.333333 c 0,0 0,5.291666 10.58334,5.291666 10.58333,0 0,-5.291666 10.58333,-10.583333 10.58333,-5.291666 21.16667,5.291667 21.16667,5.291667 0,0 21.16666,15.874997 15.875,26.458337 -5.29167,10.58333 -10.58334,31.75 -26.45834,31.75 -15.875,0 -37.04166,-26.45834 -37.04166,-26.45834 h -21.16667 c 0,0 -5.29167,-31.749997 -15.875,-42.33333 C 111.125,64.166666 89.958332,48.291667 84.666666,48.291667 c -5.291667,0 -10.583334,15.874999 -10.583334,15.874999 z"
       id="path4773"
       inkscape:connector-curvature="0" />
  </g>
  <g
     inkscape:groupmode="layer"
     id="layer2"
     inkscape:label="Layer 2"
     transform="translate(0,3)" />
</svg>
