<?xml version="1.0" encoding="UTF-8" standalone="no"?>
<!-- Created with Inkscape (http://www.inkscape.org/) -->

<svg
   xmlns:dc="http://purl.org/dc/elements/1.1/"
   xmlns:cc="http://creativecommons.org/ns#"
   xmlns:rdf="http://www.w3.org/1999/02/22-rdf-syntax-ns#"
   xmlns:svg="http://www.w3.org/2000/svg"
   xmlns="http://www.w3.org/2000/svg"
   xmlns:sodipodi="http://sodipodi.sourceforge.net/DTD/sodipodi-0.dtd"
   xmlns:inkscape="http://www.inkscape.org/namespaces/inkscape"
   width="300mm"
   height="300mm"
   viewBox="0 0 300 300"
   version="1.1"
   id="svg8"
   sodipodi:docname="badlit O.svg"
   inkscape:version="0.92.1 r15371">
  <defs
     id="defs2" />
  <sodipodi:namedview
     id="base"
     pagecolor="#ffffff"
     bordercolor="#666666"
     borderopacity="1.0"
     inkscape:pageopacity="0.0"
     inkscape:pageshadow="2"
     inkscape:zoom="0.7"
     inkscape:cx="320.78885"
     inkscape:cy="571.96675"
     inkscape:document-units="mm"
     inkscape:current-layer="layer1"
     showgrid="true"
     showguides="true"
     inkscape:window-width="1920"
     inkscape:window-height="1027"
     inkscape:window-x="1912"
     inkscape:window-y="-8"
     inkscape:window-maximized="1">
    <inkscape:grid
       type="xygrid"
       id="grid22" />
    <inkscape:grid
       type="xygrid"
       id="grid3694" />
  </sodipodi:namedview>
  <metadata
     id="metadata5">
    <rdf:RDF>
      <cc:Work
         rdf:about="">
        <dc:format>image/svg+xml</dc:format>
        <dc:type
           rdf:resource="http://purl.org/dc/dcmitype/StillImage" />
        <dc:title></dc:title>
      </cc:Work>
    </rdf:RDF>
  </metadata>
  <g
     inkscape:label="Layer 1"
     inkscape:groupmode="layer"
     id="layer1"
     transform="translate(0,3)">
    <path
       style="fill:#000000;stroke:#000000;stroke-width:0.26458332px;stroke-linecap:butt;stroke-linejoin:miter;stroke-opacity:1"
       d="m 116.41667,69.458336 c 0,0 0,10.583333 5.29166,10.583333 5.29167,0 15.875,-10.583333 26.45833,-10.583333 10.58334,0 21.16667,10.583333 21.16667,15.874999 0,5.291667 5.29167,21.166665 -5.29167,31.750005 C 153.45833,127.66667 137.58333,122.375 127,138.25 116.41667,154.125 105.83333,159.41667 116.41667,180.58333 127,201.75 132.29166,201.75 153.45833,207.04167 c 21.16667,5.29166 31.75,-15.875 31.75,-15.875 l -5.29167,-5.29167 c 0,0 -10.58333,10.58333 -31.75,5.29167 C 127,185.875 132.29166,154.125 137.58333,148.83333 c 5.29167,-5.29166 31.75,-10.58333 37.04167,-15.875 5.29166,-5.29166 21.16666,-21.16666 10.58333,-47.624995 C 174.625,58.875002 164.04166,58.875002 164.04166,58.875002 c 0,0 -15.875,-10.583333 -31.75,0 -15.87499,10.583334 -15.87499,10.583334 -15.87499,10.583334 z"
       id="path4531"
       inkscape:connector-curvature="0" />
  </g>
  <g
     inkscape:groupmode="layer"
     id="layer2"
     inkscape:label="Layer 2"
     transform="translate(0,3)" />
</svg>
