<?xml version="1.0" encoding="UTF-8" standalone="no"?>
<!-- Created with Inkscape (http://www.inkscape.org/) -->

<svg
   xmlns:dc="http://purl.org/dc/elements/1.1/"
   xmlns:cc="http://creativecommons.org/ns#"
   xmlns:rdf="http://www.w3.org/1999/02/22-rdf-syntax-ns#"
   xmlns:svg="http://www.w3.org/2000/svg"
   xmlns="http://www.w3.org/2000/svg"
   xmlns:sodipodi="http://sodipodi.sourceforge.net/DTD/sodipodi-0.dtd"
   xmlns:inkscape="http://www.inkscape.org/namespaces/inkscape"
   width="300mm"
   height="300mm"
   viewBox="0 0 300 300"
   version="1.1"
   id="svg8"
   inkscape:version="0.92.1 r15371"
   sodipodi:docname="badlit PA.svg">
  <defs
     id="defs2" />
  <sodipodi:namedview
     id="base"
     pagecolor="#ffffff"
     bordercolor="#666666"
     borderopacity="1.0"
     inkscape:pageopacity="0.0"
     inkscape:pageshadow="2"
     inkscape:zoom="0.7"
     inkscape:cx="125.78885"
     inkscape:cy="571.96675"
     inkscape:document-units="mm"
     inkscape:current-layer="layer1"
     showgrid="true"
     showguides="true"
     inkscape:window-width="1920"
     inkscape:window-height="1027"
     inkscape:window-x="1912"
     inkscape:window-y="-8"
     inkscape:window-maximized="1">
    <inkscape:grid
       type="xygrid"
       id="grid22" />
    <inkscape:grid
       type="xygrid"
       id="grid3694" />
  </sodipodi:namedview>
  <metadata
     id="metadata5">
    <rdf:RDF>
      <cc:Work
         rdf:about="">
        <dc:format>image/svg+xml</dc:format>
        <dc:type
           rdf:resource="http://purl.org/dc/dcmitype/StillImage" />
        <dc:title></dc:title>
      </cc:Work>
    </rdf:RDF>
  </metadata>
  <g
     inkscape:label="Layer 1"
     inkscape:groupmode="layer"
     id="layer1"
     transform="translate(0,3)">
    <path
       style="fill:#000000;stroke:#000000;stroke-width:0.26458332px;stroke-linecap:butt;stroke-linejoin:miter;stroke-opacity:1"
       d="m 231.01732,90.625002 c 0,0 0,5.291667 -5.29167,5.291667 -5.29166,0 -15.875,-37.041667 -31.74999,0 -15.875,37.041661 5.29166,63.500001 5.29166,63.500001 h 26.45833 v 15.875 h -21.16666 c 0,0 5.29166,52.91666 -37.04166,58.20833 -42.33334,5.29167 -58.20834,-10.58333 -74.083345,-47.625 -15.875,-37.04167 42.333345,-74.08333 15.875005,-95.249998 -26.458335,-21.166666 -21.166665,10.583338 -31.750005,5.291667 -10.58333,-5.291667 -10.58333,-10.583334 -5.29166,-15.875 5.29166,-5.291667 21.16666,-15.875 31.750005,-5.291667 10.58333,10.583333 31.75,0 15.875,58.208328 -15.875,58.20834 -5.29167,74.08334 -5.29167,74.08334 0,0 21.16667,21.16666 42.33333,10.58333 21.16667,-10.58333 42.33333,-15.875 31.75,-42.33333 -10.58333,-26.45834 -10.58333,-42.33334 -10.58333,-42.33334 0,0 -5.29167,-31.74999 0,-42.333328 5.29166,-10.583333 15.875,-21.166666 26.45833,-21.166666 10.58333,0 15.875,5.291666 21.16666,10.583333 5.29167,5.291666 5.29167,10.583333 5.29167,10.583333 z"
       id="path3698"
       inkscape:connector-curvature="0" />
  </g>
  <g
     inkscape:groupmode="layer"
     id="layer2"
     inkscape:label="Layer 2"
     transform="translate(0,3)" />
</svg>
